<?xml version="1.0" encoding="utf-8"?>
<!-- Generator: Adobe Illustrator 26.5.0, SVG Export Plug-In . SVG Version: 6.00 Build 0)  -->
<svg version="1.1" id="Capa_1" xmlns="http://www.w3.org/2000/svg" xmlns:xlink="http://www.w3.org/1999/xlink" x="0px" y="0px"
	 viewBox="0 0 2000 450" style="enable-background:new 0 0 2000 450;" xml:space="preserve">
<style type="text/css">
	.st0{fill:url(#SVGID_1_);}
	.st1{fill:#3E445E;}
</style>
<g>
	
		<linearGradient id="SVGID_1_" gradientUnits="userSpaceOnUse" x1="1174.3423" y1="-2770.7314" x2="1365.5494" y2="-2579.5244" gradientTransform="matrix(0 -1 1 0 2984.9028 1522.5619)">
		<stop  offset="0" style="stop-color:#5FD7FF"/>
		<stop  offset="0.5" style="stop-color:#B9AAFF"/>
		<stop  offset="1" style="stop-color:#FFAAAA"/>
	</linearGradient>
	<path class="st0" d="M260.24,177.62v15.34c0,5.59-4.53,10.13-10.13,10.13h-15.34c-36.54,0-67.98,28.08-69.7,64.58
		c-1.83,38.97,29.22,71.14,67.78,71.14h27.38h104.25c17.38,0,31.47-14.09,31.47-31.47V203.08V175.7c0-38.56-32.17-69.61-71.14-67.78
		C288.32,109.64,260.24,141.08,260.24,177.62z M232.86,313.04c-23.21,0-42.1-18.88-42.1-42.1c0-23.21,18.88-42.1,42.1-42.1h27.38
		v84.19H232.86z M370.2,307.33c0,3.15-2.56,5.7-5.7,5.7H286v-84.19h84.19V307.33z M370.2,175.7v27.38H286V175.7
		c0-23.21,18.88-42.1,42.1-42.1S370.2,152.49,370.2,175.7z"/>
	<g>
		<path class="st1" d="M526.83,274.14v-5.06c0-2.69,2.18-4.87,4.87-4.87h23.42c2.69,0,4.87,2.18,4.87,4.87v4.45
			c0,27.82,15.13,40.2,43.72,40.2c29.35,0,44.79-9.33,44.79-31.33c0-23.39-22.93-34.39-55.33-44.48
			c-36.53-11.31-64.81-30.57-64.81-68.78c0-37.6,30.72-58.69,74.28-58.69c46.01,0,76.58,21.25,76.58,64.5v5.82
			c0,2.69-2.18,4.87-4.87,4.87h-23.57c-2.69,0-4.87-2.18-4.87-4.87v-4.45c0-26.29-14.52-37.6-42.65-37.6
			c-27.21,0-42.65,9.17-42.65,30.42c0,24,23.23,33.93,55.03,44.48c40.2,13.45,65.27,29.5,65.27,67.72
			c0,38.52-29.96,60.68-77.04,60.68C556.33,342.01,526.83,319.39,526.83,274.14z"/>
		<path class="st1" d="M795.58,342.16c-50.93,0-85.65-35.21-84.97-85.5c0.63-46.76,38.37-82.78,85.13-82.78
			c50.75,0,82.69,34.7,82.69,83.46c0,3.82-0.31,9.93-0.61,11.92H743.77c4.13,28.28,22.93,45.09,52.89,45.09
			c28.56,0,42.4-11.69,45.76-23.1c0.61-2.07,2.48-3.49,4.64-3.49h23.37c3.09,0,5.48,2.85,4.8,5.86
			C869.62,318.16,842.3,342.16,795.58,342.16z M744.22,243.42h99.51c-1.68-22.78-17.58-42.03-47.69-42.03
			C768.53,201.39,749.12,217.13,744.22,243.42z"/>
		<path class="st1" d="M920.18,176.47h23.42c2.69,0,4.87,2.18,4.87,4.87v19.27c12.69-16.51,32.4-26.75,54.41-26.75
			c38.37,0,61.14,23.54,61.14,61.14v98.91c0,2.69-2.18,4.87-4.87,4.87h-23.42c-2.69,0-4.87-2.18-4.87-4.87v-89.74
			c0-23.69-10.09-40.35-38.21-40.35c-24.76,0-44.17,20.18-44.17,46.47v83.62c0,2.69-2.18,4.87-4.87,4.87h-23.42
			c-2.69,0-4.87-2.18-4.87-4.87V181.35C915.3,178.65,917.49,176.47,920.18,176.47z"/>
		<path class="st1" d="M1110.82,176.47h23.42c2.69,0,4.87,2.18,4.87,4.87v19.27c12.69-16.51,32.4-26.75,54.42-26.75
			c38.37,0,61.14,23.54,61.14,61.14v98.91c0,2.69-2.18,4.87-4.87,4.87h-23.42c-2.69,0-4.87-2.18-4.87-4.87v-89.74
			c0-23.69-10.09-40.35-38.21-40.35c-24.76,0-44.18,20.18-44.18,46.47v83.62c0,2.69-2.18,4.87-4.87,4.87h-23.42
			c-2.69,0-4.87-2.18-4.87-4.87V181.35C1105.95,178.65,1108.13,176.47,1110.82,176.47z"/>
		<path class="st1" d="M1292.61,125.26c0-10.85,9.63-17.42,20.94-17.42c11.16,0,20.79,6.57,20.79,17.42
			c0,11.16-9.63,17.58-20.79,17.58C1302.24,142.84,1292.61,136.27,1292.61,125.26z M1301.92,176.47h22.96
			c2.69,0,4.87,2.18,4.87,4.87v152.58c0,2.69-2.18,4.87-4.87,4.87h-22.96c-2.69,0-4.87-2.18-4.87-4.87V181.35
			C1297.04,178.65,1299.23,176.47,1301.92,176.47z"/>
		<path class="st1" d="M1367.21,257.48c0-48.91,34.85-83.46,84.99-83.46s84.98,34.55,84.98,83.46c0,49.06-34.85,84.37-84.98,84.37
			S1367.21,306.55,1367.21,257.48z M1503.86,257.48c0-33.63-21.09-55.03-51.66-55.03s-51.66,21.4-51.66,55.03
			c0,33.78,21.09,55.94,51.66,55.94S1503.86,291.26,1503.86,257.48z"/>
		<path class="st1" d="M1578.94,176.47h23.42c2.69,0,4.87,2.18,4.87,4.87v16.68c8.71-14.21,23.69-24.15,45.86-24.15
			c8.37,0,14.83,1.14,18.86,2.28c2.51,0.71,4.02,3.23,3.45,5.78l-4.79,21.23c-0.63,2.8-3.52,4.49-6.24,3.56
			c-3.26-1.12-7.98-2.12-14.19-2.12c-33.47,0-42.95,26.6-42.95,49.52v79.81c0,2.69-2.18,4.87-4.87,4.87h-23.42
			c-2.69,0-4.87-2.18-4.87-4.87V181.35C1574.06,178.65,1576.24,176.47,1578.94,176.47z"/>
		<path class="st1" d="M1693.31,292.79v-1.2c0-2.69,2.18-4.87,4.87-4.87h23.26c2.69,0,4.87,2.18,4.87,4.87v0.13
			c0,14.83,14.52,22.62,38.37,22.62c20.79,0,37.91-6.26,37.91-20.02c0-14.67-14.37-19.26-44.02-24.3
			c-32.1-5.5-62.98-16.97-62.98-48.46c0-30.72,30.42-47.69,68.32-47.69c36.23,0,68.17,18.04,68.17,49.98v0.8
			c0,2.69-2.18,4.87-4.87,4.87h-23.11c-2.69,0-4.87-2.18-4.87-4.87v-0.19c0-15.89-17.28-23.08-35.16-23.08
			c-16.66,0-35.92,4.74-35.92,19.1c0,14.52,17.12,19.41,43.26,24c31.64,5.5,63.58,15.74,63.58,48.45
			c0,33.63-33.78,49.06-71.23,49.06C1724.95,342.01,1693.31,324.89,1693.31,292.79z"/>
	</g>
</g>
</svg>
